%TF.GenerationSoftware,KiCad,Pcbnew,(6.0.10)*%
%TF.CreationDate,2023-02-23T17:52:34-08:00*%
%TF.ProjectId,exercise_2,65786572-6369-4736-955f-322e6b696361,rev?*%
%TF.SameCoordinates,Original*%
%TF.FileFunction,Copper,L1,Top*%
%TF.FilePolarity,Positive*%
%FSLAX46Y46*%
G04 Gerber Fmt 4.6, Leading zero omitted, Abs format (unit mm)*
G04 Created by KiCad (PCBNEW (6.0.10)) date 2023-02-23 17:52:34*
%MOMM*%
%LPD*%
G01*
G04 APERTURE LIST*
G04 Aperture macros list*
%AMRoundRect*
0 Rectangle with rounded corners*
0 $1 Rounding radius*
0 $2 $3 $4 $5 $6 $7 $8 $9 X,Y pos of 4 corners*
0 Add a 4 corners polygon primitive as box body*
4,1,4,$2,$3,$4,$5,$6,$7,$8,$9,$2,$3,0*
0 Add four circle primitives for the rounded corners*
1,1,$1+$1,$2,$3*
1,1,$1+$1,$4,$5*
1,1,$1+$1,$6,$7*
1,1,$1+$1,$8,$9*
0 Add four rect primitives between the rounded corners*
20,1,$1+$1,$2,$3,$4,$5,0*
20,1,$1+$1,$4,$5,$6,$7,0*
20,1,$1+$1,$6,$7,$8,$9,0*
20,1,$1+$1,$8,$9,$2,$3,0*%
G04 Aperture macros list end*
%TA.AperFunction,SMDPad,CuDef*%
%ADD10RoundRect,0.250001X-0.624999X0.462499X-0.624999X-0.462499X0.624999X-0.462499X0.624999X0.462499X0*%
%TD*%
%TA.AperFunction,SMDPad,CuDef*%
%ADD11RoundRect,0.250000X0.350000X0.450000X-0.350000X0.450000X-0.350000X-0.450000X0.350000X-0.450000X0*%
%TD*%
%TA.AperFunction,SMDPad,CuDef*%
%ADD12RoundRect,0.250000X-0.475000X0.337500X-0.475000X-0.337500X0.475000X-0.337500X0.475000X0.337500X0*%
%TD*%
%TA.AperFunction,SMDPad,CuDef*%
%ADD13RoundRect,0.250000X0.425000X-0.537500X0.425000X0.537500X-0.425000X0.537500X-0.425000X-0.537500X0*%
%TD*%
%TA.AperFunction,SMDPad,CuDef*%
%ADD14RoundRect,0.150000X-0.825000X-0.150000X0.825000X-0.150000X0.825000X0.150000X-0.825000X0.150000X0*%
%TD*%
%TA.AperFunction,SMDPad,CuDef*%
%ADD15R,2.290000X3.000000*%
%TD*%
%TA.AperFunction,SMDPad,CuDef*%
%ADD16RoundRect,0.250000X-0.450000X0.350000X-0.450000X-0.350000X0.450000X-0.350000X0.450000X0.350000X0*%
%TD*%
%TA.AperFunction,SMDPad,CuDef*%
%ADD17RoundRect,0.250001X0.462499X0.624999X-0.462499X0.624999X-0.462499X-0.624999X0.462499X-0.624999X0*%
%TD*%
%TA.AperFunction,ComponentPad*%
%ADD18R,3.000000X3.000000*%
%TD*%
%TA.AperFunction,ComponentPad*%
%ADD19C,3.000000*%
%TD*%
%TA.AperFunction,ViaPad*%
%ADD20C,0.800000*%
%TD*%
%TA.AperFunction,Conductor*%
%ADD21C,0.250000*%
%TD*%
G04 APERTURE END LIST*
D10*
%TO.P,D2,1,K*%
%TO.N,GND*%
X154885000Y-89737500D03*
%TO.P,D2,2,A*%
%TO.N,Net-(R4-Pad2)*%
X154885000Y-92712500D03*
%TD*%
D11*
%TO.P,R4,1*%
%TO.N,Net-(U1-Pad3)*%
X157619564Y-95385000D03*
%TO.P,R4,2*%
%TO.N,Net-(R4-Pad2)*%
X155619564Y-95385000D03*
%TD*%
D12*
%TO.P,C2,1*%
%TO.N,Net-(C2-Pad1)*%
X167602496Y-96342500D03*
%TO.P,C2,2*%
%TO.N,GND*%
X167602496Y-98417500D03*
%TD*%
D13*
%TO.P,C1,1*%
%TO.N,Net-(C1-Pad1)*%
X157327500Y-93602500D03*
%TO.P,C1,2*%
%TO.N,GND*%
X157327500Y-90727500D03*
%TD*%
D11*
%TO.P,R3,1*%
%TO.N,Net-(D1-Pad1)*%
X159267500Y-97992936D03*
%TO.P,R3,2*%
%TO.N,Net-(U1-Pad3)*%
X157267500Y-97992936D03*
%TD*%
D14*
%TO.P,U1,1,GND*%
%TO.N,GND*%
X160030000Y-91860000D03*
%TO.P,U1,2,TR*%
%TO.N,Net-(C1-Pad1)*%
X160030000Y-93130000D03*
%TO.P,U1,3,Q*%
%TO.N,Net-(U1-Pad3)*%
X160030000Y-94400000D03*
%TO.P,U1,4,R*%
%TO.N,+9V*%
X160030000Y-95670000D03*
%TO.P,U1,5,CV*%
%TO.N,Net-(C2-Pad1)*%
X164980000Y-95670000D03*
%TO.P,U1,6,THR*%
%TO.N,Net-(C1-Pad1)*%
X164980000Y-94400000D03*
%TO.P,U1,7,DIS*%
%TO.N,Net-(U1-Pad7)*%
X164980000Y-93130000D03*
%TO.P,U1,8,VCC*%
%TO.N,+9V*%
X164980000Y-91860000D03*
D15*
%TO.P,U1,9*%
%TO.N,N/C*%
X162505000Y-93765000D03*
%TD*%
D11*
%TO.P,R2,1*%
%TO.N,Net-(U1-Pad7)*%
X161630000Y-89955000D03*
%TO.P,R2,2*%
%TO.N,Net-(C1-Pad1)*%
X159630000Y-89955000D03*
%TD*%
D16*
%TO.P,R1,1*%
%TO.N,+9V*%
X167515000Y-91537936D03*
%TO.P,R1,2*%
%TO.N,Net-(U1-Pad7)*%
X167515000Y-93537936D03*
%TD*%
D17*
%TO.P,D1,1,K*%
%TO.N,Net-(D1-Pad1)*%
X164787500Y-98045000D03*
%TO.P,D1,2,A*%
%TO.N,+9V*%
X161812500Y-98045000D03*
%TD*%
D18*
%TO.P,J1,1,Pin_1*%
%TO.N,+9V*%
X167585000Y-83605000D03*
D19*
%TO.P,J1,2,Pin_2*%
%TO.N,GND*%
X162505000Y-83605000D03*
%TD*%
D20*
%TO.N,Net-(C1-Pad1)*%
X160030000Y-93130000D03*
X164249502Y-94029500D03*
%TO.N,+9V*%
X162522496Y-95864502D03*
%TD*%
D21*
%TO.N,Net-(C1-Pad1)*%
X159557500Y-93602500D02*
X160030000Y-93130000D01*
X157327500Y-93602500D02*
X158327500Y-92602500D01*
X164980000Y-94400000D02*
X164620002Y-94400000D01*
X158327500Y-91225000D02*
X159597500Y-89955000D01*
X157327500Y-93602500D02*
X159557500Y-93602500D01*
X159597500Y-89955000D02*
X159630000Y-89955000D01*
X158327500Y-92602500D02*
X158327500Y-91225000D01*
X164620002Y-94400000D02*
X164249502Y-94029500D01*
%TO.N,GND*%
X160898532Y-88211468D02*
X161145000Y-88457936D01*
X171305000Y-94714996D02*
X167602496Y-98417500D01*
X162505000Y-83605000D02*
X164005000Y-85105000D01*
X171305000Y-88457936D02*
X171305000Y-94714996D01*
X160665000Y-91225000D02*
X160030000Y-91860000D01*
X157327500Y-90727500D02*
X157327500Y-88782500D01*
X160665000Y-88445000D02*
X160665000Y-91225000D01*
X157846250Y-88263750D02*
X162505000Y-83605000D01*
X156372500Y-89737500D02*
X157846250Y-88263750D01*
X160898532Y-88211468D02*
X160665000Y-88445000D01*
X154885000Y-89737500D02*
X156372500Y-89737500D01*
X161145000Y-88457936D02*
X171305000Y-88457936D01*
X157327500Y-88782500D02*
X157846250Y-88263750D01*
X164005000Y-85105000D02*
X160898532Y-88211468D01*
%TO.N,Net-(C2-Pad1)*%
X165652500Y-96342500D02*
X167602496Y-96342500D01*
X164980000Y-95670000D02*
X165652500Y-96342500D01*
%TO.N,Net-(D1-Pad1)*%
X164447064Y-99380000D02*
X165062496Y-99380000D01*
X164787500Y-99039564D02*
X164447064Y-99380000D01*
X160654564Y-99380000D02*
X164447064Y-99380000D01*
X164787500Y-98045000D02*
X164787500Y-99039564D01*
X159267500Y-97992936D02*
X160654564Y-99380000D01*
%TO.N,+9V*%
X158529327Y-96967936D02*
X158192500Y-97304763D01*
X156679327Y-99017936D02*
X153525000Y-95863609D01*
X161145000Y-80837936D02*
X164817936Y-80837936D01*
X167515000Y-91537936D02*
X165302064Y-91537936D01*
X158192500Y-98681109D02*
X157855673Y-99017936D01*
X153525000Y-88457936D02*
X161145000Y-80837936D01*
X162522496Y-95864502D02*
X163450494Y-96792500D01*
X161812500Y-98045000D02*
X161812500Y-96574498D01*
X153525000Y-95863609D02*
X153525000Y-88457936D01*
X164817936Y-80837936D02*
X167585000Y-83605000D01*
X161812500Y-96574498D02*
X162522496Y-95864502D01*
X157855673Y-99017936D02*
X156679327Y-99017936D01*
X158192500Y-97304763D02*
X158192500Y-98681109D01*
X165302064Y-91537936D02*
X164980000Y-91860000D01*
X159855673Y-96967936D02*
X158529327Y-96967936D01*
X161812500Y-98045000D02*
X160932737Y-98045000D01*
X163450494Y-96792500D02*
X166225000Y-96792500D01*
X160030000Y-95670000D02*
X162327994Y-95670000D01*
X162327994Y-95670000D02*
X162522496Y-95864502D01*
X160932737Y-98045000D02*
X159855673Y-96967936D01*
%TO.N,Net-(R4-Pad2)*%
X155619564Y-93447064D02*
X155619564Y-95385000D01*
X154885000Y-92712500D02*
X155619564Y-93447064D01*
%TO.N,Net-(U1-Pad7)*%
X167545237Y-89955000D02*
X168765000Y-91174763D01*
X167515000Y-93537936D02*
X165387936Y-93537936D01*
X161630000Y-89955000D02*
X167545237Y-89955000D01*
X165387936Y-93537936D02*
X164980000Y-93130000D01*
X168765000Y-91174763D02*
X168765000Y-92287936D01*
X168765000Y-92287936D02*
X167515000Y-93537936D01*
%TO.N,Net-(U1-Pad3)*%
X157619564Y-95385000D02*
X158604564Y-94400000D01*
X158604564Y-94400000D02*
X160030000Y-94400000D01*
X157619564Y-97640872D02*
X157619564Y-95385000D01*
X157267500Y-97992936D02*
X157619564Y-97640872D01*
%TD*%
M02*
